# xmcd CD database file
#
# Track frame offsets:
#	150
#	24522
#	52207
#	70312
#	87950
#	104222
#	114075
#	142872
#	162525
#	177600
#	198442
#
# Disc length: 2932 seconds
#
# Revision: 2
# Processed by: cddbd v1.5.2PL0 Copyright (c) Steve Scherf et al.
# Submitted via: CDex 1.70beta2
#
DISCID=a00b720b
DTITLE=鈴木結女 - LIFE
DYEAR=1998
DGENRE=J-Pop
TTITLE0=LIFE
TTITLE1=A Hundred Ways
TTITLE2=予定調和の毎日
TTITLE3=The Longest Night
TTITLE4=５：０３
TTITLE5=こころのいろ
TTITLE6=夜明けのうた（～ｎｉｔｅ　ｖｅｒｓｉｏｎ～）
TTITLE7=The Day
TTITLE8=ボサリー（ｉｎｓｔｒｕｍｅｎｔａｌ）
TTITLE9=遠い日のＭｅｌｏｄｙ
TTITLE10=～雅～
EXTD=YEAR: 1998
EXTT0=
EXTT1=
EXTT2=
EXTT3=
EXTT4=
EXTT5=
EXTT6=
EXTT7=
EXTT8=
EXTT9=
EXTT10=
PLAYORDER=
